<svg width="50" height="50" viewBox="0 0 50 30" fill="none" xmlns="http://www.w3.org/2000/svg">
<g clip-path="url(#clip0_1010_28)">
<path d="M12.5006 27.0828C10.2031 27.0828 8.33398 28.9519 8.33398 31.2494C8.33398 33.5468 10.2031 35.416 12.5006 35.416C14.798 35.416 16.6672 33.5468 16.6672 31.2494C16.6672 28.9519 14.798 27.0828 12.5006 27.0828ZM12.5006 33.7493C11.1223 33.7493 10.0006 32.6276 10.0006 31.2493C10.0006 29.871 11.1223 28.7493 12.5006 28.7493C13.8789 28.7493 15.0006 29.871 15.0006 31.2493C15.0006 32.6276 13.8797 33.7493 12.5006 33.7493Z" fill="#DDE4FE"/>
<path d="M49.1668 26.2495V22.9162V22.0829C49.1668 21.7904 49.0143 21.5138 48.7609 21.368C45.3118 19.3747 41.1445 18.7531 36.6928 19.5639L30.203 17.9414C29.7772 17.8372 29.348 18.074 29.2105 18.4865L28.5973 20.3264C28.5506 20.4672 28.4306 20.5755 28.2864 20.6072C26.0923 21.0931 24.0315 21.0973 22.4482 20.9614C22.0524 20.9273 21.9173 20.419 22.2473 20.1989L24.6297 18.6107C24.838 18.4723 24.9722 18.2473 24.9964 17.9998C25.0205 17.7515 24.9331 17.5048 24.7564 17.3282L22.2564 14.8282C21.9755 14.5473 21.5356 14.504 21.2047 14.724L13.9307 19.5738C10.745 19.4622 8.24421 19.9946 6.29587 20.8105C4.18426 21.6954 2.39345 23.2037 1.01103 25.0287C1.01103 25.0287 -1.30058 27.9162 1.06689 30.9944C1.16943 31.1277 1.33857 31.2003 1.50439 31.2336L5.67097 32.0669C5.72595 32.0777 5.78015 32.0827 5.83435 32.0827C6.02517 32.0827 6.21267 32.0169 6.36267 31.8935C6.53845 31.7494 6.65515 31.6319 6.67849 31.4535C6.67595 31.3851 6.66765 31.3185 6.66765 31.2493C6.66765 28.0277 9.27926 25.4161 12.5008 25.4161C15.7166 25.4161 18.324 28.0185 18.3332 31.2327C18.3332 31.236 18.3341 31.2386 18.3341 31.2419C18.335 31.7035 18.7049 32.0827 19.1657 32.0827H32.5021C32.9637 32.0827 33.333 31.7035 33.3338 31.2419C33.3338 31.2386 33.3346 31.2352 33.3346 31.2319C33.3446 28.0179 35.9521 25.4162 39.167 25.4162C42.3886 25.4162 45.0002 28.0278 45.0002 31.2494C44.9403 31.7552 45.3394 32.0827 45.8335 32.0827H49.1668C49.6268 32.0827 50.0001 31.7093 50.0001 31.2494V27.0828C50.0001 26.6228 49.6276 26.2495 49.1668 26.2495Z" fill="#DDE4FE"/>
<path d="M39.1666 27.0828C36.8691 27.0828 35 28.9519 35 31.2494C35 33.5468 36.8691 35.416 39.1666 35.416C41.464 35.416 43.3332 33.5468 43.3332 31.2494C43.3332 28.9519 41.464 27.0828 39.1666 27.0828ZM39.1666 33.7493C37.7883 33.7493 36.6666 32.6276 36.6666 31.2493C36.6666 29.871 37.7883 28.7493 39.1666 28.7493C40.5449 28.7493 41.6666 29.871 41.6666 31.2493C41.6666 32.6276 40.5457 33.7493 39.1666 33.7493Z" fill="#DDE4FE"/>
</g>
<defs>
<clipPath id="clip0_1010_28">
<rect width="50" height="50" fill="white"/>
</clipPath>
</defs>
</svg>
