<svg width="329" height="290" viewBox="0 0 329 290" fill="none" xmlns="http://www.w3.org/2000/svg">
<path d="M193.8 40.8V132.2H171.2V111.6C171.2 98.4001 171.6 82.1001 172.3 62.6001C169.1 76.3001 165.8 88.4001 162.5 98.9001L151.9 132.2H133.6L122.9 99.8C119.7 90.4 116.4 78.0001 112.9 62.6001C113.7 80.0001 114 95.3001 114 108.6V132.2H91.4V40.8H125.6L135.4 72.6001C138.3 81.9001 140.8 92.5001 142.8 104.4C145.6 90.8001 148.2 80.0001 150.6 72.1001L159.9 40.8H193.8Z" fill="#efefef"/>
<path d="M152 152.6L122.2 244H94.7L65.7 152.6H90.7L99 179.2C103.7 194.1 106.9 207.9 108.7 220.6C110.7 207.8 113.9 194.1 118.5 179.4L126.8 152.7H152V152.6Z" fill="#efefef"/>
<path d="M252.6 150.3C266.8 150.3 278.1 155.3 286.6 165.4C293.8 174.2 297.5 185.1 297.5 198.3C297.5 213.5 292.8 225.6 283.5 234.6C275.3 242.4 265.1 246.3 252.7 246.3C238.2 246.3 226.7 241.3 218.2 231.2C210.9 222.5 207.2 211.5 207.2 198.3C207.2 183.1 211.7 171.1 220.7 162.5C229.3 154.4 240 150.3 252.6 150.3ZM252.4 170C245.5 170 240.1 172.9 236.3 178.7C233 183.6 231.3 190.1 231.3 198.2C231.3 207.6 233.4 214.9 237.7 220C241.4 224.4 246.4 226.6 252.5 226.6C259 226.6 264 224.1 267.7 219C271.4 213.9 273.2 206.8 273.2 197.7C273.2 188.4 271.1 181.3 266.8 176.4C263.2 172.2 258.4 170 252.4 170Z" fill="#efefef"/>
<path d="M82.9 73.9001H55.5V41.1001H31.6V132.2H55.5V94.4001H82.9V73.9001Z" fill="#efefef"/>
<path d="M241.2 75.6001H202.4V94.4001H241.2V75.6001Z" fill="#D9B316"/>
<path d="M247.3 40.8H202.4V60.5H247.3V40.8Z" fill="#D9B316"/>
<path d="M247.3 112.5H202.4V132.2H247.3V112.5Z" fill="#D9B316"/>
<path d="M301.8 111.7H279.7V40.8H256.2H255.8V132.2H294.1L301.8 111.7Z" fill="#efefef"/>
<path d="M75.1 210.2H63.6L67.8 198.1C68.4 196.3 69 194.5 69.6 192.8L59.2 160L27.7 244.1H52.2L58.1 227.4H80.5L75.1 210.2Z" fill="#efefef"/>
<path d="M161.1 152.6L154.5 173.2H158.9V244.1H182.6V173.2H209.9V152.6H161.1Z" fill="#efefef"/>
<path d="M325.4 4H4V286.3H325.4V4Z" stroke="#D9B316" stroke-width="7" stroke-miterlimit="10"/>
</svg>
