<svg width="50" height="50" viewBox="0 0 50 50" fill="none" xmlns="http://www.w3.org/2000/svg">
<path d="M7.8125 12.5H42.1875" stroke="#7680A4" stroke-width="6" stroke-linecap="round" stroke-linejoin="round"/>
<path d="M7.8125 25H42.1875" stroke="#7680A4" stroke-width="6" stroke-linecap="round" stroke-linejoin="round"/>
<path d="M7.8125 37.5H42.1875" stroke="#7680A4" stroke-width="6" stroke-linecap="round" stroke-linejoin="round"/>
<path d="M14.962 6.81818C13.8008 6.81818 12.6657 7.16252 11.7002 7.80765C10.7346 8.45279 9.98212 9.36975 9.53774 10.4426C9.09336 11.5154 8.97709 12.6959 9.20364 13.8348C9.43018 14.9737 9.98936 16.0199 10.8105 16.841C11.6316 17.6621 12.6777 18.2212 13.8166 18.4478C14.9555 18.6743 16.136 18.5581 17.2088 18.1137C18.2817 17.6693 19.1986 16.9168 19.8438 15.9513C20.4889 14.9857 20.8332 13.8506 20.8332 12.6894C20.8332 11.1322 20.2147 9.63888 19.1136 8.53781C18.0125 7.43675 16.5192 6.81818 14.962 6.81818Z" fill="#7680A4"/>
<path d="M14.963 14.6562C16.0487 14.6562 16.9289 13.7761 16.9289 12.6903C16.9289 11.6046 16.0487 10.7244 14.963 10.7244C13.8772 10.7244 12.9971 11.6046 12.9971 12.6903C12.9971 13.7761 13.8772 14.6562 14.963 14.6562Z" fill="#AAB8EC"/>
<path d="M35.4171 18.9394C34.2559 18.9394 33.1208 19.2837 32.1552 19.9289C31.1897 20.574 30.4372 21.491 29.9928 22.5638C29.5484 23.6366 29.4322 24.8171 29.6587 25.956C29.8853 27.0949 30.4444 28.1411 31.2655 28.9622C32.0866 29.7833 33.1328 30.3425 34.2717 30.569C35.4106 30.7955 36.5911 30.6793 37.6639 30.2349C38.7368 29.7905 39.6537 29.038 40.2988 28.0725C40.944 27.107 41.2883 25.9718 41.2883 24.8106C41.2883 23.2535 40.6698 21.7601 39.5687 20.659C38.4676 19.558 36.9743 18.9394 35.4171 18.9394Z" fill="#7680A4"/>
<path d="M18.7501 31.8182C17.5889 31.8182 16.4538 32.1625 15.4882 32.8077C14.5227 33.4528 13.7702 34.3697 13.3258 35.4426C12.8815 36.5154 12.7652 37.6959 12.9917 38.8348C13.2183 39.9737 13.7774 41.0199 14.5985 41.841C15.4196 42.6621 16.4658 43.2212 17.6047 43.4478C18.7436 43.6743 19.9241 43.5581 20.9969 43.1137C22.0698 42.6693 22.9867 41.9168 23.6319 40.9513C24.277 39.9857 24.6213 38.8506 24.6213 37.6894C24.6213 36.1322 24.0028 34.6389 22.9017 33.5378C21.8006 32.4367 20.3073 31.8182 18.7501 31.8182Z" fill="#7680A4"/>
<path d="M35.4181 26.7775C36.5038 26.7775 37.384 25.8973 37.384 24.8116C37.384 23.7258 36.5038 22.8456 35.4181 22.8456C34.3323 22.8456 33.4521 23.7258 33.4521 24.8116C33.4521 25.8973 34.3323 26.7775 35.4181 26.7775Z" fill="#AAB8EC"/>
<path d="M18.7511 39.6562C19.8368 39.6562 20.717 38.7761 20.717 37.6903C20.717 36.6046 19.8368 35.7244 18.7511 35.7244C17.6653 35.7244 16.7852 36.6046 16.7852 37.6903C16.7852 38.7761 17.6653 39.6562 18.7511 39.6562Z" fill="#AAB8EC"/>
</svg>
