<svg width="1080" height="199" viewBox="0 0 1080 199" fill="none" xmlns="http://www.w3.org/2000/svg">
<path d="M518.5 58.7V193.2H485.2V163C485.2 143.6 485.8 119.5 486.9 90.8999C482.1 111.1 477.3 128.8 472.4 144.3L456.8 193.3H429.9L414.1 145.6C409.5 131.7 404.6 113.5 399.4 90.8999C400.5 116.4 401.1 139 401.1 158.5V193.3H367.8V58.7H418.1L432.6 105.5C436.9 119.2 440.5 134.7 443.5 152.3C447.6 132.3 451.5 116.4 455 104.8L468.7 58.8H518.5V58.7Z" fill="#efefef"/>
<path d="M355.3 107.4H315.1V59.0999H280V193.2H315.1V137.6H355.3V107.4Z" fill="#efefef"/>
<path d="M588.3 110H531.2V137.6H588.3V110Z" fill="#D9B316"/>
<path d="M597.2 58.7H531.2V87.6H597.2V58.7Z" fill="#D9B316"/>
<path d="M597.2 164.3H531.2V193.2H597.2V164.3Z" fill="#D9B316"/>
<path d="M677.4 163H645V58.7H610.3H609.9V193.2H666.1L677.4 163Z" fill="#efefef"/>
<path d="M865.3 60.0999L821.5 194.6H781.1L738.5 60.0999H775.3L787.5 99.1998C794.4 121.1 799.1 141.4 801.8 160.1C804.7 141.3 809.5 121.1 816.3 99.3998L828.5 60.0999H865.3Z" fill="#efefef"/>
<path d="M1013.2 56.7C1034.1 56.7 1050.8 64.0999 1063.2 78.8999C1073.8 91.7999 1079.2 108 1079.2 127.4C1079.2 149.8 1072.3 167.6 1058.5 180.8C1046.5 192.3 1031.4 198.1 1013.2 198.1C991.9 198.1 975 190.7 962.5 175.9C951.7 163.1 946.3 147 946.3 127.4C946.3 105 952.9 87.4 966.2 74.8C979 62.7 994.7 56.7 1013.2 56.7ZM1013 85.7C1002.9 85.7 995 90 989.3 98.5C984.4 105.8 982 115.3 982 127.2C982 141.1 985.1 151.8 991.4 159.3C996.9 165.8 1004.2 169.1 1013.2 169.1C1022.7 169.1 1030.2 165.4 1035.6 157.9C1041 150.4 1043.7 140 1043.7 126.6C1043.7 113 1040.6 102.5 1034.3 95.2C1028.9 88.8 1021.8 85.7 1013 85.7Z" fill="#efefef"/>
<path d="M752.1 144.8H735.2L741.4 127C742.3 124.4 743.2 121.8 744 119.2L728.8 70.8999L682.5 194.7H718.6L727.2 170.1H760.1L752.1 144.8Z" fill="#efefef"/>
<path d="M878.7 60.0999L868.9 90.3998H875.4V194.6H910.3V90.3998H950.5V60.0999H878.7Z" fill="#efefef"/>
<path d="M193.3 19.2V0.800049H118.9L125 19.2H193.3Z" fill="#efefef"/>
<path d="M30.3 116.9V146V164.4V175V193.4H94.5V175V164.4V146V116.9H30.3Z" fill="#efefef"/>
<path d="M193.3 48.2V29.8H128.6L134.7 48.2H193.3Z" fill="#efefef"/>
<path d="M193.3 135.3V116.9H157.6L163.8 135.3H193.3Z" fill="#efefef"/>
<path d="M193.3 164.4V146H167.3L173.5 164.4H193.3Z" fill="#efefef"/>
<path d="M177 175L183.1 193.4H193.3V175H177Z" fill="#efefef"/>
<path d="M94.5 0H30.3V48.2H94.5V0Z" fill="#efefef"/>
<path d="M15.9 58.8999L9.59998 77.2999H193.3V58.8999H15.9Z" fill="#D9B316"/>
<path d="M6 87.8999L0 105.6V106.3H193.3V87.8999H6Z" fill="#D9B316"/>
</svg>
