<svg width="25" height="24" viewBox="0 0 25 24" fill="none" xmlns="http://www.w3.org/2000/svg">
<g clip-path="url(#clip0_177_140)">
<path d="M24.8173 22.9756L18.5673 16.9756C18.5644 16.9728 18.5606 16.972 18.5578 16.9696C20.2273 15.168 21.2502 12.8016 21.2502 10.2C21.2502 4.5668 16.4932 0 10.6252 0C4.75732 0 0.000244141 4.5668 0.000244141 10.2C0.000244141 15.8332 4.75732 20.4 10.6252 20.4C13.3353 20.4 15.7998 19.418 17.6769 17.8148C17.6798 17.8176 17.6807 17.8212 17.6832 17.824L23.9332 23.824C24.0552 23.9416 24.2152 24 24.3752 24C24.5353 24 24.6953 23.9416 24.8173 23.8244C25.0611 23.59 25.0611 23.21 24.8173 22.9756ZM10.6252 19.2C5.45605 19.2 1.25024 15.1624 1.25024 10.2C1.25024 5.23758 5.45605 1.2 10.6252 1.2C15.7944 1.2 20.0002 5.23758 20.0002 10.2C20.0002 15.1624 15.7944 19.2 10.6252 19.2Z" fill="#535353"/>
</g>
<defs>
<clipPath id="clip0_177_140">
<rect width="25" height="24" fill="white"/>
</clipPath>
</defs>
</svg>
