<svg width="123" height="43" viewBox="0 0 123 43" fill="none" xmlns="http://www.w3.org/2000/svg">
<path d="M18.4512 32.3727H21.88V42.5745H18.4743V38.4307H15.9526V36.3858H18.4512V32.3727ZM15.4145 42.5745H12.0165V32.3727H15.4145V42.5745Z" fill="#EFEFEF"/>
<path d="M23.6789 32.3727H27.2922L30.0291 36.9085L32.1817 33.2184V38.3538L29.7292 42.5745L23.6789 32.3727ZM32.6814 42.5745V32.3727H36.0794V42.5745H32.6814ZM23.6712 42.5745V33.3183L26.8463 38.646V42.5745H23.6712Z" fill="#EFEFEF"/>
<path d="M41.2764 38.3846V42.5745H37.8783V32.3727H41.2764V36.4165H44.5283V38.3846H41.2764ZM41.8145 34.3485V32.3727H47.1268V35.3248H43.9287V34.3485H41.8145ZM41.8145 42.5745V40.5372H43.7288V39.5147H47.1268V42.5745H41.8145Z" fill="#EFEFEF"/>
<path d="M48.7643 42.5745V32.3727H52.1623V42.5745H48.7643ZM52.7005 42.5745V40.5372H54.3841V39.2456H57.4669V42.5745H52.7005Z" fill="#EFEFEF"/>
<path d="M59.043 36.8855H65.8313V38.7229H59.043V36.8855Z" fill="#EFEFEF"/>
<path d="M74.8645 41.4597H71.528L72.2353 39.4378H74.0804L71.3512 32.3727H74.6646L78.7315 42.5745H75.295L74.8645 41.4597ZM70.6208 42.5745H67.3381L70.9822 32.834L72.489 36.8855L70.6208 42.5745Z" fill="#EFEFEF"/>
<path d="M89.4714 40.5372L87.4341 42.5745H84.8126V40.5372H86.0734V32.3727H89.4714V40.5372ZM83.0213 40.5372H84.2744V42.5745H81.6606L79.6156 40.5372V32.3727H83.0213V40.5372Z" fill="#EFEFEF"/>
<path d="M93.3614 35.125H96.8978V42.5745H93.3614V35.125ZM90.7015 32.3727H99.5578V34.5945H90.7015V32.3727Z" fill="#EFEFEF"/>
<path d="M104.024 40.4988H105.301V42.5745H102.687L100.619 40.5372V34.41L102.687 32.3727H105.301V34.4407H104.024V40.4988ZM107.138 34.4407H105.839V32.3727H108.476L110.536 34.41V40.5372L108.476 42.5745H105.839V40.4988H107.138V34.4407Z" fill="#EFEFEF"/>
<path d="M64.7087 1.9401C63.6124 2.00609 61.4466 2.25685 60.7647 2.37564C55.1228 3.41827 52.0077 4.63249 44.9886 8.51269C43.4511 9.35736 41.6596 10.4 41.0312 10.8223C39.0525 12.1421 38.4777 12.3533 35.6968 12.736C34.8545 12.8548 33.9855 12.9736 33.7582 13.0132C33.5443 13.0396 32.7287 13.132 31.9533 13.198C31.1779 13.264 29.5602 13.4487 28.3435 13.5939C27.1269 13.7391 25.5359 13.9239 24.8006 13.9898C21.6454 14.2802 18.7575 14.7685 15.7628 15.5208C13.4632 16.0751 12.153 16.5503 9.96037 17.6061C8.4095 18.3584 8.07526 18.5695 6.93885 19.6386C6.06983 20.4437 5.53505 21.0772 5.25429 21.6051C4.49222 23.0173 4.53233 23.0701 5.70885 22.2122C6.95222 21.3015 8.36939 20.5492 10.2946 19.797C12.4605 18.9523 16.2708 17.936 18.0356 17.7513C18.4367 17.7117 19.2389 17.5797 19.8405 17.4741C20.4421 17.3685 21.9529 17.2234 23.1962 17.1442C24.453 17.0518 25.9504 16.9594 26.5386 16.9198C27.1269 16.8802 35.1887 16.8406 44.4539 16.8274C59.147 16.801 68.5057 16.7218 74.4685 16.5635C75.391 16.5371 77.5569 16.4843 79.2816 16.4447C82.3165 16.3655 84.4155 16.2863 85.5118 16.1675C86.6215 16.0619 88.3996 15.9695 90.7794 15.8904C92.1431 15.8508 93.2929 15.7848 93.333 15.7584C93.3865 15.732 94.1084 15.6792 94.9373 15.6396C97.023 15.5472 100.018 15.3096 101.141 15.1645C101.662 15.0853 102.825 14.9797 103.748 14.9137C107.959 14.597 113.829 13.5543 116.73 12.6041C118.735 11.9442 118.842 11.8386 117.706 11.6406C117.198 11.5482 116.369 11.4426 115.847 11.403C110.098 10.9543 104.042 9.42335 98.2664 6.96853C91.4746 4.06498 86.3942 2.73198 80.0169 2.16447C77.9714 1.9797 66.6072 1.82132 64.7087 1.9401ZM76.7547 3.56345C80.6987 3.78782 84.8032 4.46091 87.1028 5.23959C90.6992 6.46701 93.841 8.51269 95.5256 10.7168C96.5149 12.0234 96.5283 12.0102 93.7608 12.0102C92.4506 12.0102 89.8836 12.0761 88.0386 12.1421C86.207 12.2213 82.8379 12.3005 80.5517 12.3401C76.4339 12.3929 69.9764 12.5381 68.0511 12.6041C67.503 12.6305 65.3639 12.6833 63.3049 12.7228C61.246 12.7756 58.3582 12.8548 56.8876 12.9208C55.4169 12.9868 52.4355 13.0528 50.2696 13.066C48.1037 13.066 45.6705 13.132 44.8549 13.1848C43.6918 13.2772 43.3442 13.264 43.1971 13.1188C42.9565 12.8944 43.1169 12.6964 44.1196 11.9706C44.5207 11.6802 44.8817 11.403 44.9218 11.3503C45.0555 11.1919 47.8096 9.29137 48.8925 8.60508C49.4942 8.23553 50.6974 7.56244 51.5665 7.11371C52.4355 6.67817 53.2109 6.25584 53.2778 6.20305C53.5184 6.01828 56.9009 4.76447 57.9304 4.48731C59.7887 3.98579 61.1658 3.82741 64.9093 3.68223C66.9548 3.61624 68.6661 3.52386 68.6929 3.49746C68.8132 3.39188 74.4552 3.43147 76.7547 3.56345Z" fill="#E14336"/>
<path d="M46.5796 11.0071C46.1651 11.1919 45.4565 11.9706 45.4565 12.2345C45.4565 12.5117 45.9512 12.5513 47.8497 12.4589C49.4674 12.3797 49.815 12.3269 50.0156 12.1289C50.3364 11.8122 50.3364 11.601 49.9888 11.1655C49.7214 10.8355 49.668 10.8223 48.3577 10.8223C47.5155 10.8355 46.8336 10.9015 46.5796 11.0071Z" fill="#E14336"/>
<path d="M117.452 13.6071C115.446 14.069 110.513 15.0325 107.023 15.6396C105.112 15.9695 103.093 16.3259 102.545 16.4315C97.3038 17.4345 85.3247 18.9259 78.7468 19.401C77.6773 19.4802 76.3002 19.599 75.6718 19.665C71.2064 20.1929 55.4036 20.1797 48.3311 19.665C42.6757 19.2426 39.2665 18.9787 37.2343 18.8071C35.991 18.7015 33.3973 18.5168 31.4854 18.4112C24.2124 17.9756 17.6078 18.7543 11.8455 20.7208C10.3481 21.2355 7.29988 22.5553 7.39346 22.6477C7.4202 22.6741 7.88814 22.5553 8.43629 22.3838C13.6905 20.7208 19.4528 19.9025 25.2686 19.9949C26.8462 20.0213 28.4773 20.0741 28.8784 20.1269C30.9105 20.3381 33.0764 20.6416 35.4963 21.0508C37.9697 21.4599 39.6542 21.6711 43.518 22.0406C44.3336 22.1198 45.4165 22.2386 45.9246 22.3178C46.446 22.3838 48.1573 22.5025 49.7349 22.5685C51.3125 22.6345 53.5185 22.7533 54.6148 22.8457C55.9517 22.9381 59.3209 22.9645 64.7756 22.9117C73.9071 22.8325 76.5141 22.7137 81.6213 22.1858C82.2898 22.1198 83.5198 22.0274 84.3621 21.9746C89.3489 21.7107 98.8948 19.9553 105.205 18.134C108.588 17.1574 113.307 15.6264 114.51 15.1117C114.738 15.0193 115.513 14.7025 116.248 14.4122C117.893 13.7655 118.829 13.3431 118.655 13.3563C118.588 13.3563 118.04 13.4751 117.452 13.6071Z" fill="#E14336"/>
<path d="M116.382 15.5868C116.021 15.798 115.633 15.9695 115.553 15.9695C115.46 15.9695 115.018 16.1411 114.577 16.3523C114.123 16.5766 113.534 16.8142 113.267 16.9066C113 16.9858 112.705 17.1046 112.625 17.1706C112.558 17.2233 111.115 17.7381 109.417 18.2924C105.392 19.6122 101.154 20.668 97.5979 21.2355L96.8625 21.3543L97.7316 21.3675C98.9749 21.3807 102.464 21.0508 104.39 20.7208C109.617 19.8497 114.19 17.9888 116.716 15.732C117.412 15.0985 117.318 15.0589 116.382 15.5868Z" fill="#E14336"/>
</svg>
