<?xml version="1.0" encoding="utf-8"?>
<!-- Generator: Adobe Illustrator 26.3.1, SVG Export Plug-In . SVG Version: 6.00 Build 0)  -->
<svg version="1.1" id="Слой_1" xmlns="http://www.w3.org/2000/svg" xmlns:xlink="http://www.w3.org/1999/xlink" x="0px" y="0px"
	 viewBox="0 0 200 200" style="enable-background:new 0 0 200 200;" xml:space="preserve">
<style type="text/css">
	.st0{fill:#FFFFFF;}
	.st1{fill:none;stroke:#FFFFFF;stroke-miterlimit:10;}
</style>
<g>
	<path class="st0" d="M188.01,177.77c1.94,1.94,1.94,5.13,0,7.07l-3.17,3.17c-1.94,1.94-5.13,1.94-7.07,0L11.99,22.23
		c-1.94-1.94-1.94-5.13,0-7.07l3.17-3.17c1.94-1.94,5.13-1.94,7.07,0L188.01,177.77z"/>
	<path class="st1" d="M188.01,177.77c1.94,1.94,1.94,5.13,0,7.07l-3.17,3.17c-1.94,1.94-5.13,1.94-7.07,0L11.99,22.23
		c-1.94-1.94-1.94-5.13,0-7.07l3.17-3.17c1.94-1.94,5.13-1.94,7.07,0L188.01,177.77z"/>
</g>
<g>
	<path class="st0" d="M177.77,11.99c1.94-1.94,5.13-1.94,7.07,0l3.17,3.17c1.94,1.94,1.94,5.13,0,7.07L22.23,188.01
		c-1.94,1.94-5.13,1.94-7.07,0l-3.17-3.17c-1.94-1.94-1.94-5.13,0-7.07L177.77,11.99z"/>
	<path class="st1" d="M177.77,11.99c1.94-1.94,5.13-1.94,7.07,0l3.17,3.17c1.94,1.94,1.94,5.13,0,7.07L22.23,188.01
		c-1.94,1.94-5.13,1.94-7.07,0l-3.17-3.17c-1.94-1.94-1.94-5.13,0-7.07L177.77,11.99z"/>
</g>
</svg>
